#!OML:ASF F:\VICON\USERDATA\INSTALL\Justin_Nancy\Justin_Nancy.ASF
:FULLY-SPECIFIED
:DEGREES
1
root -10.2653 16.9502 -26.601 2.97721 -6.76908 -0.0799023
lowerback 11.2822 0.425328 -4.55147
upperback 1.21932 0.154607 2.92046
thorax -5.07466 0.197133 5.63695
lowerneck -20.0456 -2.05176 -9.82338
upperneck 12.2126 -1.2412 7.05518
head 7.11637 -0.406031 3.77809
rclavicle -5.36719e-015 7.95139e-015
rhumerus -50.7793 10.8583 -88.9258
rradius 108.838
rwrist -20.3272
rhand -4.43229 24.1456
rfingers 7.12502
rthumb 21.3388 -4.69952
lclavicle -5.36719e-015 7.95139e-015
lhumerus -41.0761 -1.62947 89.1678
lradius 97.8806
lwrist 28.0665
lhand -16.3124 8.9774
lfingers 7.12502
lthumb 9.89875 38.7247
rfemur -31.4785 5.85211 15.3596
rtibia 44.7755
rfoot -9.93999 -2.18283
rtoes -11.517
lfemur 3.88473 2.30169 -22.3568
ltibia 68.0158
lfoot 19.8212 -8.8912
ltoes -2.94039
2
root -10.2272 16.9409 -26.1781 2.27907 -1.19123 -1.14812
lowerback 12.2197 -1.4234 -2.02805
upperback 1.29263 -1.9754 3.21824
thorax -5.30997 -0.898581 4.8673
lowerneck -19.8678 -2.09435 -9.9088
upperneck 12.1518 -1.26401 6.89762
head 7.0686 -0.437943 3.73434
rclavicle 1.98785e-014 1.82882e-014
rhumerus -49.1509 11.7076 -88.4958
rradius 108.154
rwrist -20.4762
rhand -4.00619 24.0627
rfingers 7.12502
rthumb 21.748 -4.73551
lclavicle 1.98785e-014 1.82882e-014
lhumerus -41.4088 -0.850487 89.3828
lradius 96.607
lwrist 28.232
lhand -16.5761 9.67163
lfingers 7.12502
lthumb 9.64432 39.4309
rfemur -27.9931 1.4814 16.9999
rtibia 45.2377
rfoot -12.1044 -4.97563
rtoes -12.9027
lfemur 1.8987 -1.91874 -20.213
ltibia 71.9032
lfoot 13.425 -9.25217
ltoes -24.9225
3
root -10.2848 16.8593 -25.8515 3.82023 -7.11453 -2.50582
lowerback 11.1811 0.972807 -2.77039
upperback 1.05735 1.14907 3.68011
thorax -5.30122 0.667375 5.26984
lowerneck -19.7818 -2.1698 -9.75803
upperneck 11.9529 -1.35553 6.57256
head 6.99403 -0.503618 3.58656
rclavicle -1.2921e-014 -3.73715e-014
rhumerus -47.4827 12.4329 -88.0469
rradius 107.512
rwrist -19.9867
rhand -4.7076 23.9833
rfingers 7.12502
rthumb 21.0743 -4.89149
lclavicle -1.2921e-014 -3.73715e-014
lhumerus -41.8181 -0.348034 89.6992
lradius 95.5145
lwrist 28.4486
lhand -16.9496 10.3595
lfingers 7.12502
lthumb 9.28401 40.1351
rfemur -29.3547 6.27688 18.5286
rtibia 45.2733
rfoot -12.1986 -5.25655
rtoes -15.8626
lfemur -1.15782 5.25146 -17.9737
ltibia 75.2683
lfoot 11.5589 -10.3235
ltoes -26.1856
4
root -10.2203 16.8916 -25.4159 2.59529 -0.104376 -2.7615
lowerback 12.3981 -1.29822 -0.696306
upperback 1.14936 -1.5857 3.8511
thorax -5.61775 -0.721001 4.73103
lowerneck -19.7062 -2.16517 -9.55537
upperneck 11.9557 -1.32585 6.05528
head 6.97472 -0.528754 3.38353
rclavicle -2.89232e-014 6.20208e-014
rhumerus -45.7182 13.3744 -87.3816
rradius 106.923
rwrist -19.0829
rhand -5.39788 23.9999
rfingers 7.12502
rthumb 20.4111 -4.94736
lclavicle -2.89232e-014 6.20208e-014
lhumerus -42.4234 0.274748 90.136
lradius 94.6923
lwrist 28.924
lhand -16.9948 10.5431
lfingers 7.12502
lthumb 9.24037 40.3206
rfemur -24.9552 0.717479 19.1082
rtibia 45.0505
rfoot -14.479 -7.63137
rtoes -16.7642
lfemur -3.11217 -0.445608 -16.9312
ltibia 78.2645
lfoot 14.3495 -10.5718
ltoes -14.3508
5
root -10.2096 16.8768 -25.0379 2.67769 0.67911 -3.07823
lowerback 12.3006 -1.30307 -0.477454
upperback 1.24438 -1.55391 4.05156
thorax -5.46624 -0.711846 4.8078
lowerneck -20.0667 -2.1568 -9.40777
upperneck 12.2616 -1.26833 5.70617
head 7.12626 -0.526269 3.25435
rclavicle -3.20043e-014 1.98785e-014
rhumerus -43.8164 14.2236 -86.6607
rradius 106.656
rwrist -18.3123
rhand -5.26011 24.095
rfingers 7.12502
rthumb 20.5435 -4.83804
lclavicle -3.20043e-014 1.98785e-014
lhumerus -42.7582 0.681806 90.5775
lradius 94.1306
lwrist 29.7015
lhand -17.0864 10.4591
lfingers 7.12502
lthumb 9.15198 40.2405
rfemur -23.2882 0.380209 19.4547
rtibia 44.8412
rfoot -15.8445 -8.50999
rtoes -17.7876
lfemur -5.74723 0.0485159 -16.0404
ltibia 81.0097
lfoot 17.9728 -10.6318
ltoes 5.49957
6
root -10.1918 16.876 -24.6638 2.92451 1.02079 -2.97205
lowerback 11.981 -1.10409 -0.685528
upperback 1.42058 -1.32601 4.08266
thorax -5.11628 -0.603031 4.90486
lowerneck -20.4335 -2.12351 -9.00661
upperneck 12.1615 -1.21325 5.20648
head 7.14343 -0.521837 3.02832
rclavicle -2.3059e-014 2.06736e-014
rhumerus -42.1413 14.9443 -86.0926
rradius 106.768
rwrist -17.7661
rhand -5.36382 24.1085
rfingers 7.12502
rthumb 20.4438 -4.83521
lclavicle -2.3059e-014 2.06736e-014
lhumerus -42.8402 0.909934 91.0711
lradius 93.8613
lwrist 30.5012
lhand -16.8883 10.5784
lfingers 7.12502
lthumb 9.34316 40.3514
rfemur -21.8385 0.432155 19.2473
rtibia 44.3713
rfoot -16.8584 -8.77232
rtoes -18.5546
lfemur -8.49527 1.01515 -15.8545
ltibia 83.3448
lfoot 21.1304 -10.6065
ltoes 21.7675
7
root -10.1719 16.8797 -24.304 3.19103 1.1077 -2.95955
lowerback 11.3376 -0.855852 -0.667543
upperback 1.7461 -1.02048 3.94981
thorax -4.44638 -0.468776 4.67528
lowerneck -20.2805 -2.05303 -8.56384
upperneck 11.5328 -1.19421 4.90629
head 6.90571 -0.512706 2.85195
rclavicle 1.08338e-014 3.18055e-015
rhumerus -40.3128 15.4708 -85.8445
rradius 106.871
rwrist -17.3207
rhand -5.53102 24.0334
rfingers 7.12502
rthumb 20.2831 -4.92749
lclavicle 1.08338e-014 3.18055e-015
lhumerus -42.716 0.770787 91.296
lradius 93.8134
lwrist 31.4694
lhand -16.8184 10.9214
lfingers 7.12502
lthumb 9.41055 40.6913
rfemur -20.4805 0.684439 19.1336
rtibia 43.9105
rfoot -17.5936 -8.85488
rtoes -18.5042
lfemur -11.1699 2.33061 -15.6437
ltibia 85.3672
lfoot 22.3449 -10.5529
ltoes 29.319
8
root -10.1491 16.8932 -23.9451 3.47819 1.29286 -3.19401
lowerback 9.9219 -0.670952 0.177789
upperback 2.51411 -0.752501 3.40981
thorax -2.90301 -0.372875 3.53632
lowerneck -20.4823 -2.03816 -7.93605
upperneck 10.9616 -1.36968 5.21162
head 6.76189 -0.531114 2.82664
rclavicle -1.2921e-015 -3.89618e-014
rhumerus -37.4424 15.4473 -86.0035
rradius 106.803
rwrist -17.9198
rhand -5.11796 24.0517
rfingers 7.12502
rthumb 20.6801 -4.86654
lclavicle -1.2921e-015 -3.89618e-014
lhumerus -42.0861 -0.0713198 90.888
lradius 94.0841
lwrist 32.5176
lhand -16.3949 11.0223
lfingers 7.12502
lthumb 9.8192 40.7733
rfemur -18.9769 0.720767 19.3328
rtibia 43.2523
rfoot -17.9999 -8.9733
rtoes -19.388
lfemur -13.7748 3.53753 -15.2576
ltibia 87.0109
lfoot 19.9835 -10.1839
ltoes 25.4253
9
root -10.1101 16.9254 -23.5701 3.62569 1.7528 -3.54287
lowerback 12.0626 0.0201164 -1.19716
upperback 0.930919 0.168631 4.90678
thorax -5.8173 0.17722 5.85515
lowerneck -19.7286 -2.28822 -9.23779
upperneck 12.3797 -1.3127 4.44275
head 7.10413 -0.664329 2.79955
rclavicle 2.5842e-015 -5.32743e-014
rhumerus -38.7067 16.5108 -83.6299
rradius 107.742
rwrist -19.6043
rhand -4.40506 24.9449
rfingers 7.12502
rthumb 21.3649 -3.89722
lclavicle 2.5842e-015 -5.32743e-014
lhumerus -45.2 0.23882 93.8979
lradius 94.8151
lwrist 32.7272
lhand -15.8345 11.1311
lfingers 7.12502
lthumb 10.3598 40.8559
rfemur -17.1325 0.343584 19.6466
rtibia 42.3393
rfoot -17.8471 -9.20799
rtoes -22.3299
lfemur -16.1583 4.38972 -14.9799
ltibia 88.2023
lfoot 14.0453 -9.28658
ltoes 7.75126
10
root -10.0641 16.973 -23.1918 3.67408 2.15807 -4.02497
lowerback 12.0344 0.225157 0.139079
upperback 0.881701 0.587493 4.3282
thorax -5.87842 0.342246 4.39388
lowerneck -19.7557 -2.42649 -8.55909
upperneck 12.7519 -1.77537 4.92959
head 7.26122 -0.811035 2.80149
rclavicle -2.88238e-015 -7.95139e-016
rhumerus -38.1948 15.8998 -84.3601
rradius 108.671
rwrist -20.5176
rhand -4.25002 25.8267
rfingers 7.12502
rthumb 21.5139 -2.99849
lclavicle -2.88238e-015 -7.95139e-016
lhumerus -45.9622 -1.22373 93.5908
lradius 95.3693
lwrist 32.9235
lhand -15.8988 11.2675
lfingers 7.12502
lthumb 10.2978 40.9954
rfemur -15.0893 -0.0171752 20.0588
rtibia 41.1684
rfoot -17.4703 -9.08587
rtoes -23.6892
lfemur -18.5759 5.31347 -14.7629
ltibia 88.9876
lfoot 10.9866 -9.0086
ltoes -0.926777
